<?xml version="1.0" encoding="utf-8"?>
<!-- Generator: Adobe Illustrator 27.1.1, SVG Export Plug-In . SVG Version: 6.00 Build 0)  -->
<svg version="1.1" id="Layer_1" xmlns="http://www.w3.org/2000/svg" xmlns:xlink="http://www.w3.org/1999/xlink" x="0px" y="0px"
	 viewBox="0 0 85.04 63.55" style="enable-background:new 0 0 85.04 63.55;" xml:space="preserve">
<style type="text/css">
	.st0{fill:#061831;}
</style>
<path class="st0" d="M80.24,0.48h-7.08l-1.42,0.03c-2.26,0-3.84,1.08-4.73,3.25l-0.55,1.38l-9.36,23.01l-1.8-23.01
	c-0.07-0.88-0.22-1.64-0.46-2.29c-0.28-1.13-0.97-1.92-2.08-2.37c-0.13-0.06-0.25-0.14-0.39-0.19c-0.2-0.06-0.46-0.07-0.68-0.12
	C51.32,0.11,51,0,50.59,0c-0.07,0-0.13,0.03-0.2,0.03c-0.1,0-0.17-0.03-0.28-0.03h-0.98h-8.5h-0.98c-1.49,0-2.68,0.37-3.57,1.11
	c-0.9,0.74-1.35,1.71-1.35,2.91c0,1.23,0.46,2.22,1.37,2.96c0.92,0.74,2.1,1.11,3.55,1.11h0.98h2.94L31.34,38.22
	c-2.44,6.01-4.71,10.22-6.79,12.61s-4.5,3.59-7.24,3.59c-2.37,0-4.23-0.75-5.58-2.26c-1.35-1.51-2.02-3.58-2.02-6.2
	c0-2.46,0.69-4.83,2.06-7.08c1.37-2.26,3.22-4.09,5.55-5.49c2.81-1.68,6.51-2.74,11.09-3.18c2.07-0.18,3.56-0.62,4.46-1.31
	c0.9-0.69,1.35-1.73,1.35-3.11c0-1.36-0.56-2.44-1.69-3.23c-1.13-0.79-2.66-1.19-4.6-1.19c-3.66,0-7.41,0.81-11.25,2.42
	c-3.84,1.61-7.02,3.72-9.55,6.32C2.37,34.96,0,40.64,0,47.13c0,4.86,1.5,8.81,4.51,11.85c3.01,3.04,6.93,4.56,11.77,4.56
	c4.54,0,8.56-1.36,12.06-4.08c2.42-1.89,4.38-4.12,5.89-6.69s3.71-7.42,6.62-14.56l7.22-17.83l1.59,20.84
	c0.21,2.63,0.69,4.43,1.45,5.43c0.76,0.99,2.04,1.49,3.84,1.49c2.26,0,3.88-1.12,4.87-3.35l0.66-1.62L74.43,8.74h4.22
	c2,0,3.57-0.44,4.7-1.31s1.69-2.11,1.69-3.7C85.04,1.57,83.44,0.48,80.24,0.48z"/>
<text transform="matrix(1 0 0 1 -6.5464 97.1129)" style="font-family:'HarlowSolid'; font-size:12px;">Harlow Solid Italic</text>
</svg>
