<?xml version="1.0" encoding="utf-8"?>
<!-- Generator: Adobe Illustrator 27.1.1, SVG Export Plug-In . SVG Version: 6.00 Build 0)  -->
<svg version="1.1" id="Layer_1" xmlns="http://www.w3.org/2000/svg" xmlns:xlink="http://www.w3.org/1999/xlink" x="0px" y="0px"
	 viewBox="0 0 85 63.5" style="enable-background:new 0 0 85 63.5;" xml:space="preserve">
<style type="text/css">
	.st0{fill:#FFFFFF;}
</style>
<path class="st0" d="M80.2,0.5h-7.1h-1.4c-2.3,0-3.8,1.1-4.7,3.2l-0.6,1.4l-9.4,23l-1.8-23c-0.1-0.9-0.2-1.6-0.5-2.3
	c-0.3-1.1-1-1.9-2.1-2.4c-0.1-0.1-0.2-0.1-0.4-0.2s-0.5-0.1-0.7-0.1C51.3,0.1,51,0,50.6,0c-0.1,0-0.1,0-0.2,0c-0.1,0-0.2,0-0.3,0h-1
	h-8.5h-1c-1.5,0-2.7,0.4-3.6,1.1c-0.9,0.7-1.3,1.7-1.3,2.9s0.5,2.2,1.4,3c0.9,0.7,2.1,1.1,3.5,1.1h1h2.9L31.3,38.2
	c-2.4,6-4.7,10.2-6.8,12.6s-4.5,3.6-7.2,3.6c-2.4,0-4.2-0.8-5.6-2.3s-2-3.6-2-6.2c0-2.5,0.7-4.8,2.1-7.1s3.2-4.1,5.6-5.5
	c2.8-1.7,6.5-2.7,11.1-3.2c2.1-0.2,3.6-0.6,4.5-1.3c0.9-0.7,1.3-1.7,1.3-3.1s-0.6-2.4-1.7-3.2c-1.1-0.8-2.7-1.2-4.6-1.2
	c-3.7,0-7.4,0.8-11.2,2.4s-7,3.7-9.6,6.3C2.4,35,0,40.6,0,47.1C0,52,1.5,55.9,4.5,59s6.9,4.6,11.8,4.6c4.5,0,8.6-1.4,12.1-4.1
	c2.4-1.9,4.4-4.1,5.9-6.7s3.7-7.4,6.6-14.6l7.2-17.8l1.6,20.8c0.2,2.6,0.7,4.4,1.5,5.4s2,1.5,3.8,1.5c2.3,0,3.9-1.1,4.9-3.3l0.7-1.6
	l14-34.4h4.2c2,0,3.6-0.4,4.7-1.3S85,5.3,85,3.7C85,1.6,83.4,0.5,80.2,0.5z"/>
<text transform="matrix(1 0 0 1 -6.5464 97.1129)" style="font-family:'HarlowSolid'; font-size:12px;">Harlow Solid Italic</text>
</svg>
